<?xml version="1.0" encoding="UTF-8"?>
<svg id="_レイヤー_1" data-name="レイヤー_1" xmlns="http://www.w3.org/2000/svg" width="1000" height="691.1" viewBox="0 0 1000 691.1">
  <defs>
    <style>
      .cls-1 {
        fill: #f6bec8;
      }
    </style>
  </defs>
  <path class="cls-1" d="M984.3,11.8s-252.8-64.4-409.1,108.1c-30.7,33.9-55.4,74.4-75.2,117.6-19.9-43.2-44.5-83.7-75.2-117.6C268.4-52.6,15.7,11.8,15.7,11.8c0,0-70.2,287,86.7,458.9,155.3,170.1,397.6,220.5,397.6,220.5,0,0,242.4-50.4,397.6-220.5,156.9-171.9,86.7-458.9,86.7-458.9ZM500,612.3c-88.3,0-159.8-71.6-159.8-159.8s71.6-159.8,159.8-159.8,159.8,71.6,159.8,159.8-71.6,159.8-159.8,159.8Z"/>
</svg>